<?xml version="1.0" encoding="UTF-8"?>
<svg xmlns="http://www.w3.org/2000/svg" xmlns:xlink="http://www.w3.org/1999/xlink" width="1920" height="1080" viewBox="0 0 1920 1080">
<defs>
<g>
<g id="glyph-0-0">
<path d="M 5.703125 0 L 5.703125 -5.273438 C 5.703125 -5.75 5.523438 -5.988281 5.167969 -5.988281 C 4.71875 -5.988281 4.492188 -5.675781 4.492188 -5.050781 L 4.023438 -6.042969 L 4.558594 -6.042969 C 4.578125 -6.3125 4.6875 -6.542969 4.878906 -6.738281 C 5.074219 -6.933594 5.351562 -7.03125 5.714844 -7.03125 C 6.195312 -7.03125 6.539062 -6.902344 6.757812 -6.648438 C 6.976562 -6.390625 7.082031 -5.976562 7.082031 -5.402344 L 7.082031 0 L 5.703125 0 M 0.730469 0 L 0.730469 -6.902344 L 1.953125 -6.902344 L 2.109375 -5.441406 L 2.109375 0 L 0.730469 0 M 3.320312 0 L 3.320312 -5.402344 C 3.320312 -5.792969 3.136719 -5.988281 2.773438 -5.988281 C 2.332031 -5.988281 2.109375 -5.675781 2.109375 -5.050781 L 1.707031 -6.042969 L 2.148438 -6.042969 C 2.199219 -6.703125 2.59375 -7.03125 3.332031 -7.03125 C 3.695312 -7.03125 3.976562 -6.90625 4.183594 -6.660156 C 4.390625 -6.414062 4.492188 -6.039062 4.492188 -5.535156 L 4.492188 0 Z "/>
</g>
<g id="glyph-0-1">
<path d="M 0.488281 3.125 L 0.421875 1.886719 L 1.503906 1.757812 C 1.960938 1.703125 2.347656 1.578125 2.671875 1.386719 C 2.996094 1.195312 3.273438 0.914062 3.503906 0.539062 C 3.734375 0.160156 3.933594 -0.328125 4.109375 -0.9375 L 5.828125 -6.902344 L 7.257812 -6.902344 L 5.265625 -0.613281 C 5.007812 0.210938 4.714844 0.875 4.390625 1.378906 C 4.066406 1.882812 3.6875 2.261719 3.246094 2.511719 C 2.804688 2.765625 2.277344 2.925781 1.660156 2.996094 L 0.488281 3.125 M 3.105469 0 L 0.359375 -6.902344 L 1.789062 -6.902344 L 4.042969 -1.042969 L 4.25 -1.042969 L 4.25 0 Z "/>
</g>
<g id="glyph-0-2">
<path d="M 0.652344 1.210938 L 0.652344 0 L 7.160156 0 L 7.160156 1.210938 Z "/>
</g>
<g id="glyph-0-3">
<path d="M 5.324219 0.0664062 L 5.234375 -1.980469 L 5.050781 -2.550781 L 5.050781 -4.335938 C 5.050781 -4.796875 4.890625 -5.132812 4.566406 -5.347656 C 4.242188 -5.5625 3.761719 -5.679688 3.125 -5.695312 L 1.472656 -5.742188 L 1.601562 -6.964844 L 2.996094 -6.945312 C 4.136719 -6.929688 4.984375 -6.683594 5.535156 -6.207031 C 6.089844 -5.730469 6.367188 -5.039062 6.367188 -4.128906 L 6.367188 -1.25 L 7.539062 -1.105469 L 7.539062 0 L 5.324219 0.0664062 M 2.890625 0.128906 C 2.171875 0.128906 1.613281 -0.0429688 1.21875 -0.390625 C 0.824219 -0.738281 0.625 -1.226562 0.625 -1.863281 C 0.625 -2.589844 0.898438 -3.152344 1.441406 -3.542969 C 1.988281 -3.933594 2.757812 -4.128906 3.75 -4.128906 C 4.164062 -4.128906 4.53125 -4.101562 4.851562 -4.054688 C 5.175781 -4.003906 5.464844 -3.929688 5.714844 -3.828125 L 5.429688 -2.890625 C 5.140625 -2.957031 4.855469 -2.992188 4.578125 -3.003906 C 4.300781 -3.015625 4.015625 -3.019531 3.722656 -3.019531 C 2.527344 -3.019531 1.925781 -2.65625 1.925781 -1.925781 C 1.925781 -1.625 2.03125 -1.390625 2.234375 -1.222656 C 2.441406 -1.058594 2.734375 -0.976562 3.113281 -0.976562 C 3.542969 -0.976562 3.902344 -1.050781 4.1875 -1.199219 C 4.476562 -1.34375 4.695312 -1.535156 4.835938 -1.765625 C 4.980469 -1.996094 5.050781 -2.230469 5.050781 -2.472656 L 5.050781 -3.230469 L 5.457031 -1.457031 L 4.910156 -1.457031 L 5.128906 -1.667969 C 5.128906 -1.265625 5.039062 -0.933594 4.851562 -0.667969 C 4.667969 -0.398438 4.410156 -0.199219 4.074219 -0.0703125 C 3.742188 0.0625 3.347656 0.128906 2.890625 0.128906 Z "/>
</g>
<g id="glyph-0-4">
<path d="M 3.4375 -2.96875 L 3.035156 -5.128906 L 3.566406 -5.128906 C 3.644531 -6.398438 4.28125 -7.03125 5.46875 -7.03125 C 6.179688 -7.03125 6.695312 -6.828125 7.019531 -6.417969 C 7.339844 -6.011719 7.5 -5.351562 7.5 -4.441406 L 6.132812 -4.441406 C 6.132812 -4.945312 6.058594 -5.304688 5.90625 -5.527344 C 5.757812 -5.75 5.515625 -5.859375 5.183594 -5.859375 C 4.597656 -5.859375 4.160156 -5.609375 3.871094 -5.105469 C 3.582031 -4.605469 3.4375 -3.894531 3.4375 -2.96875 M 0.519531 0 L 0.519531 -1.210938 L 5.128906 -1.210938 L 5.128906 0 L 0.519531 0 M 2.058594 0 L 2.058594 -6.902344 L 3.175781 -6.902344 L 3.4375 -4.921875 L 3.4375 0 L 2.058594 0 M 0.78125 -5.691406 L 0.78125 -6.902344 L 3.085938 -6.902344 L 3.214844 -5.691406 Z "/>
</g>
<g id="glyph-0-5">
<path d="M 2.421875 1.394531 L 2.421875 -10.636719 L 3.777344 -10.636719 L 3.777344 1.394531 L 2.421875 1.394531 M 3.644531 1.394531 L 3.644531 0.15625 L 6.496094 0.15625 L 6.496094 1.394531 L 3.644531 1.394531 M 3.644531 -9.402344 L 3.644531 -10.636719 L 6.496094 -10.636719 L 6.496094 -9.402344 Z "/>
</g>
<g id="glyph-0-6">
<path d="M 3.425781 0 L 3.425781 -9.246094 L 4.777344 -9.246094 L 4.777344 0 L 3.425781 0 M 1.105469 0 L 1.105469 -1.238281 L 3.554688 -1.238281 L 3.554688 0 L 1.105469 0 M 4.648438 0 L 4.648438 -1.238281 L 6.847656 -1.238281 L 6.847656 0 L 4.648438 0 M 1.238281 -7.148438 L 1.238281 -8.464844 L 3.425781 -9.246094 L 3.425781 -7.902344 Z "/>
</g>
<g id="glyph-0-7">
<path d="M 4.035156 1.394531 L 4.035156 -10.636719 L 5.390625 -10.636719 L 5.390625 1.394531 L 4.035156 1.394531 M 1.316406 1.394531 L 1.316406 0.15625 L 4.167969 0.15625 L 4.167969 1.394531 L 1.316406 1.394531 M 1.316406 -9.402344 L 1.316406 -10.636719 L 4.167969 -10.636719 L 4.167969 -9.402344 Z "/>
</g>
<g id="glyph-0-8">
<path d="M 0.652344 -5.636719 L 0.652344 -6.847656 L 7.160156 -6.847656 L 7.160156 -5.636719 L 0.652344 -5.636719 M 0.652344 -2.382812 L 0.652344 -3.59375 L 7.160156 -3.59375 L 7.160156 -2.382812 Z "/>
</g>
<g id="glyph-0-9">
<path d="M 3.90625 0.128906 C 2.902344 0.128906 2.128906 -0.101562 1.578125 -0.570312 C 1.03125 -1.035156 0.753906 -1.691406 0.753906 -2.539062 C 0.753906 -3.316406 1.03125 -3.914062 1.578125 -4.339844 C 2.128906 -4.761719 2.902344 -4.972656 3.90625 -4.972656 C 4.910156 -4.972656 5.683594 -4.761719 6.234375 -4.339844 C 6.78125 -3.914062 7.058594 -3.316406 7.058594 -2.539062 C 7.058594 -1.691406 6.78125 -1.035156 6.234375 -0.570312 C 5.683594 -0.101562 4.910156 0.128906 3.90625 0.128906 M 3.90625 -1.066406 C 4.476562 -1.066406 4.914062 -1.203125 5.222656 -1.472656 C 5.535156 -1.742188 5.691406 -2.117188 5.691406 -2.605469 C 5.691406 -3.125 5.535156 -3.53125 5.222656 -3.820312 C 4.914062 -4.113281 4.476562 -4.257812 3.90625 -4.257812 C 3.335938 -4.257812 2.898438 -4.113281 2.585938 -3.820312 C 2.277344 -3.53125 2.121094 -3.125 2.121094 -2.605469 C 2.121094 -2.117188 2.277344 -1.742188 2.585938 -1.472656 C 2.898438 -1.203125 3.335938 -1.066406 3.90625 -1.066406 M 2.824219 -4.597656 L 2.824219 -5.261719 L 5 -5.261719 L 5 -4.597656 L 2.824219 -4.597656 M 3.90625 -5.507812 C 4.390625 -5.507812 4.769531 -5.621094 5.03125 -5.84375 C 5.296875 -6.066406 5.429688 -6.375 5.429688 -6.769531 C 5.429688 -7.222656 5.296875 -7.570312 5.03125 -7.8125 C 4.769531 -8.054688 4.390625 -8.175781 3.90625 -8.175781 C 3.421875 -8.175781 3.042969 -8.054688 2.78125 -7.8125 C 2.515625 -7.570312 2.382812 -7.222656 2.382812 -6.769531 C 2.382812 -6.375 2.515625 -6.066406 2.78125 -5.84375 C 3.042969 -5.621094 3.421875 -5.507812 3.90625 -5.507812 M 3.90625 -4.855469 C 2.992188 -4.855469 2.28125 -5.046875 1.773438 -5.425781 C 1.269531 -5.804688 1.015625 -6.339844 1.015625 -7.03125 C 1.015625 -7.773438 1.269531 -8.351562 1.773438 -8.757812 C 2.28125 -9.171875 2.992188 -9.375 3.90625 -9.375 C 4.828125 -9.375 5.539062 -9.171875 6.042969 -8.757812 C 6.546875 -8.351562 6.796875 -7.773438 6.796875 -7.03125 C 6.796875 -6.339844 6.546875 -5.804688 6.042969 -5.425781 C 5.539062 -5.046875 4.828125 -4.855469 3.90625 -4.855469 Z "/>
</g>
</g>
</defs>
<g fill="rgb(100%, 100%, 100%)" fill-opacity="1">
<use xlink:href="#glyph-0-0" x="30" y="32.369141"/>
<use xlink:href="#glyph-0-1" x="38" y="32.369141"/>
<use xlink:href="#glyph-0-2" x="46" y="32.369141"/>
<use xlink:href="#glyph-0-3" x="54" y="32.369141"/>
<use xlink:href="#glyph-0-4" x="62" y="32.369141"/>
<use xlink:href="#glyph-0-4" x="70" y="32.369141"/>
<use xlink:href="#glyph-0-3" x="78" y="32.369141"/>
<use xlink:href="#glyph-0-1" x="86" y="32.369141"/>
<use xlink:href="#glyph-0-5" x="94" y="32.369141"/>
<use xlink:href="#glyph-0-6" x="102" y="32.369141"/>
<use xlink:href="#glyph-0-7" x="110" y="32.369141"/>
<use xlink:href="#glyph-0-8" x="118" y="32.369141"/>
<use xlink:href="#glyph-0-9" x="126" y="32.369141"/>
</g>
</svg>
