<?xml version="1.0" encoding="UTF-8"?>
<svg xmlns="http://www.w3.org/2000/svg" xmlns:xlink="http://www.w3.org/1999/xlink" width="1920" height="1080" viewBox="0 0 1920 1080">
<defs>
<g>
<g id="glyph-0-0">
<path d="M 1.953125 0 L 1.953125 -15.410156 L 4.210938 -15.410156 L 4.210938 0 L 1.953125 0 M 1.953125 -6.03125 L 1.953125 -8.09375 L 10.199219 -8.09375 L 10.199219 -6.03125 L 1.953125 -6.03125 M 1.953125 -13.347656 L 1.953125 -15.410156 L 12.152344 -15.410156 L 12.152344 -13.347656 Z "/>
</g>
<g id="glyph-0-1">
<path d="M 6.511719 0.21875 C 4.917969 0.21875 3.683594 -0.304688 2.800781 -1.34375 C 1.917969 -2.386719 1.476562 -3.855469 1.476562 -5.75 C 1.476562 -7.652344 1.917969 -9.125 2.800781 -10.160156 C 3.683594 -11.199219 4.917969 -11.71875 6.511719 -11.71875 C 8.109375 -11.71875 9.347656 -11.199219 10.226562 -10.160156 C 11.105469 -9.125 11.546875 -7.652344 11.546875 -5.75 C 11.546875 -3.855469 11.105469 -2.386719 10.226562 -1.34375 C 9.347656 -0.304688 8.109375 0.21875 6.511719 0.21875 M 6.511719 -1.84375 C 7.355469 -1.84375 8.011719 -2.183594 8.46875 -2.863281 C 8.929688 -3.542969 9.15625 -4.507812 9.15625 -5.75 C 9.15625 -7.003906 8.929688 -7.964844 8.46875 -8.644531 C 8.011719 -9.320312 7.355469 -9.65625 6.511719 -9.65625 C 5.664062 -9.65625 5.011719 -9.320312 4.550781 -8.644531 C 4.09375 -7.964844 3.863281 -7.003906 3.863281 -5.75 C 3.863281 -4.507812 4.09375 -3.542969 4.550781 -2.863281 C 5.011719 -2.183594 5.664062 -1.84375 6.511719 -1.84375 Z "/>
</g>
<g id="glyph-0-2">
<path d="M 8.226562 0.21875 C 6.894531 0.21875 5.933594 -0.144531 5.339844 -0.867188 C 4.746094 -1.589844 4.449219 -2.75 4.449219 -4.339844 L 4.449219 -16.277344 L 6.75 -16.277344 L 6.75 -4.449219 C 6.75 -3.839844 6.808594 -3.34375 6.921875 -2.960938 C 7.039062 -2.578125 7.265625 -2.296875 7.601562 -2.117188 C 7.9375 -1.933594 8.433594 -1.84375 9.09375 -1.84375 C 9.695312 -1.84375 10.460938 -1.980469 11.394531 -2.257812 L 11.652344 -0.238281 C 11.066406 -0.078125 10.503906 0.0351562 9.964844 0.109375 C 9.425781 0.179688 8.847656 0.21875 8.226562 0.21875 M 1.0625 -14.257812 L 1.0625 -16.277344 L 4.644531 -16.277344 L 4.644531 -14.257812 Z "/>
</g>
<g id="glyph-0-3">
<path d="M 7.8125 0 L 6.46875 -9.136719 L 6.292969 -9.136719 L 5.347656 -11.503906 L 7.453125 -11.503906 L 8.8125 -1.734375 L 9.007812 -1.734375 L 9.984375 -11.503906 L 12.261719 -11.503906 L 10.632812 0 L 7.8125 0 M 2.0625 0 L 0.757812 -11.503906 L 2.929688 -11.503906 L 3.796875 -1.734375 L 3.992188 -1.734375 L 5.347656 -11.503906 L 7.453125 -11.503906 L 6.488281 -9.136719 L 6.335938 -9.136719 L 4.992188 0 Z "/>
</g>
<g id="glyph-0-4">
</g>
<g id="glyph-0-5">
<path d="M 6.46875 0.21875 C 3.167969 0.21875 1.519531 -1.503906 1.519531 -4.949219 L 1.519531 -15.410156 L 3.777344 -15.410156 L 3.777344 -4.949219 C 3.777344 -3.921875 3.996094 -3.148438 4.4375 -2.625 C 4.878906 -2.105469 5.570312 -1.84375 6.511719 -1.84375 C 8.332031 -1.84375 9.246094 -2.878906 9.246094 -4.949219 L 9.246094 -15.410156 L 11.503906 -15.410156 L 11.503906 -4.949219 C 11.503906 -3.226562 11.074219 -1.933594 10.222656 -1.074219 C 9.367188 -0.214844 8.117188 0.21875 6.46875 0.21875 Z "/>
</g>
<g id="glyph-0-6">
<path d="M 5.621094 0.21875 C 4.753906 0.21875 4.007812 0.191406 3.390625 0.140625 C 2.773438 0.0898438 2.207031 0.0078125 1.691406 -0.109375 L 1.953125 -2.191406 C 2.710938 -2.074219 3.382812 -1.988281 3.964844 -1.929688 C 4.546875 -1.875 5.101562 -1.84375 5.621094 -1.84375 C 6.785156 -1.84375 7.628906 -1.957031 8.15625 -2.1875 C 8.679688 -2.414062 8.941406 -2.777344 8.941406 -3.277344 C 8.941406 -3.625 8.847656 -3.882812 8.664062 -4.054688 C 8.480469 -4.222656 8.195312 -4.355469 7.8125 -4.449219 L 5.164062 -5.121094 C 4.03125 -5.410156 3.195312 -5.769531 2.664062 -6.195312 C 2.132812 -6.621094 1.867188 -7.269531 1.867188 -8.136719 C 1.867188 -9.398438 2.347656 -10.308594 3.316406 -10.871094 C 4.28125 -11.4375 5.835938 -11.71875 7.984375 -11.71875 C 8.542969 -11.71875 9.0625 -11.703125 9.542969 -11.671875 C 10.023438 -11.636719 10.519531 -11.582031 11.023438 -11.503906 L 10.785156 -9.503906 C 10.199219 -9.5625 9.683594 -9.601562 9.234375 -9.625 C 8.785156 -9.644531 8.347656 -9.65625 7.921875 -9.65625 C 6.632812 -9.65625 5.699219 -9.546875 5.121094 -9.328125 C 4.542969 -9.105469 4.253906 -8.746094 4.253906 -8.246094 C 4.253906 -7.914062 4.371094 -7.671875 4.613281 -7.523438 C 4.851562 -7.375 5.214844 -7.242188 5.707031 -7.117188 L 7.835938 -6.597656 C 9.042969 -6.308594 9.925781 -5.921875 10.488281 -5.4375 C 11.046875 -4.953125 11.328125 -4.246094 11.328125 -3.320312 C 11.328125 -2.082031 10.875 -1.183594 9.972656 -0.625 C 9.066406 -0.0625 7.617188 0.21875 5.621094 0.21875 Z "/>
</g>
</g>
</defs>
<g fill="rgb(98.823529%, 38.431373%, 33.333333%)" fill-opacity="1">
<use xlink:href="#glyph-0-0" x="30" y="40.617188"/>
<use xlink:href="#glyph-0-1" x="43" y="40.617188"/>
<use xlink:href="#glyph-0-2" x="56" y="40.617188"/>
<use xlink:href="#glyph-0-2" x="69" y="40.617188"/>
<use xlink:href="#glyph-0-1" x="82" y="40.617188"/>
<use xlink:href="#glyph-0-3" x="95" y="40.617188"/>
<use xlink:href="#glyph-0-4" x="108" y="40.617188"/>
<use xlink:href="#glyph-0-5" x="121" y="40.617188"/>
<use xlink:href="#glyph-0-6" x="134" y="40.617188"/>
</g>
</svg>
