<?xml version="1.0" encoding="UTF-8"?>
<svg xmlns="http://www.w3.org/2000/svg" xmlns:xlink="http://www.w3.org/1999/xlink" width="1920" height="1080" viewBox="0 0 1920 1080">
<defs>
<g>
<g id="glyph-0-0">
<path d="M 0.878906 0 L 0.878906 -6.914062 L 1.925781 -6.914062 L 1.925781 -5.945312 C 2.144531 -6.28125 2.433594 -6.554688 2.792969 -6.761719 C 3.152344 -6.96875 3.5625 -7.070312 4.023438 -7.070312 C 4.535156 -7.070312 4.957031 -6.964844 5.28125 -6.75 C 5.609375 -6.539062 5.84375 -6.242188 5.976562 -5.859375 C 6.523438 -6.667969 7.234375 -7.070312 8.113281 -7.070312 C 8.796875 -7.070312 9.324219 -6.878906 9.695312 -6.5 C 10.0625 -6.121094 10.246094 -5.535156 10.246094 -4.746094 L 10.246094 0 L 9.082031 0 L 9.082031 -4.355469 C 9.082031 -4.824219 9.042969 -5.160156 8.96875 -5.367188 C 8.890625 -5.574219 8.753906 -5.738281 8.554688 -5.867188 C 8.355469 -5.992188 8.121094 -6.054688 7.851562 -6.054688 C 7.367188 -6.054688 6.960938 -5.894531 6.640625 -5.570312 C 6.320312 -5.246094 6.160156 -4.730469 6.160156 -4.015625 L 6.160156 0 L 4.988281 0 L 4.988281 -4.492188 C 4.988281 -5.011719 4.890625 -5.402344 4.699219 -5.664062 C 4.507812 -5.925781 4.195312 -6.054688 3.761719 -6.054688 C 3.433594 -6.054688 3.128906 -5.96875 2.847656 -5.792969 C 2.566406 -5.621094 2.367188 -5.367188 2.238281 -5.03125 C 2.113281 -4.699219 2.050781 -4.214844 2.050781 -3.585938 L 2.050781 0 Z "/>
</g>
<g id="glyph-0-1">
<path d="M 0.828125 2.664062 L 0.695312 1.5625 C 0.953125 1.632812 1.175781 1.667969 1.367188 1.667969 C 1.628906 1.667969 1.835938 1.625 1.992188 1.535156 C 2.148438 1.449219 2.277344 1.328125 2.375 1.171875 C 2.449219 1.054688 2.570312 0.765625 2.734375 0.300781 C 2.757812 0.234375 2.789062 0.140625 2.839844 0.0117188 L 0.214844 -6.914062 L 1.476562 -6.914062 L 2.917969 -2.910156 C 3.101562 -2.402344 3.269531 -1.867188 3.417969 -1.308594 C 3.550781 -1.847656 3.714844 -2.371094 3.898438 -2.882812 L 5.378906 -6.914062 L 6.550781 -6.914062 L 3.917969 0.117188 C 3.636719 0.875 3.417969 1.398438 3.261719 1.6875 C 3.054688 2.074219 2.816406 2.355469 2.546875 2.535156 C 2.277344 2.714844 1.957031 2.804688 1.582031 2.804688 C 1.355469 2.804688 1.105469 2.757812 0.828125 2.664062 Z "/>
</g>
<g id="glyph-0-2">
<path d="M -0.203125 2.648438 L -0.203125 1.804688 L 7.566406 1.804688 L 7.566406 2.648438 Z "/>
</g>
<g id="glyph-0-3">
<path d="M 5.390625 -0.851562 C 4.957031 -0.484375 4.539062 -0.222656 4.136719 -0.0703125 C 3.734375 0.0820312 3.304688 0.15625 2.84375 0.15625 C 2.085938 0.15625 1.5 -0.03125 1.09375 -0.398438 C 0.6875 -0.769531 0.480469 -1.246094 0.480469 -1.824219 C 0.480469 -2.160156 0.558594 -2.46875 0.710938 -2.75 C 0.867188 -3.03125 1.070312 -3.253906 1.316406 -3.425781 C 1.566406 -3.59375 1.847656 -3.722656 2.160156 -3.808594 C 2.390625 -3.871094 2.738281 -3.929688 3.203125 -3.984375 C 4.148438 -4.097656 4.847656 -4.230469 5.292969 -4.386719 C 5.296875 -4.546875 5.300781 -4.652344 5.300781 -4.695312 C 5.300781 -5.171875 5.1875 -5.507812 4.96875 -5.703125 C 4.667969 -5.96875 4.222656 -6.101562 3.632812 -6.101562 C 3.082031 -6.101562 2.675781 -6.003906 2.414062 -5.808594 C 2.148438 -5.617188 1.957031 -5.277344 1.828125 -4.785156 L 0.683594 -4.941406 C 0.789062 -5.433594 0.960938 -5.828125 1.199219 -6.128906 C 1.4375 -6.429688 1.78125 -6.664062 2.234375 -6.824219 C 2.683594 -6.988281 3.207031 -7.070312 3.800781 -7.070312 C 4.390625 -7.070312 4.871094 -7 5.242188 -6.863281 C 5.609375 -6.722656 5.882812 -6.546875 6.054688 -6.335938 C 6.226562 -6.128906 6.351562 -5.863281 6.417969 -5.539062 C 6.457031 -5.339844 6.476562 -4.980469 6.476562 -4.460938 L 6.476562 -2.898438 C 6.476562 -1.808594 6.503906 -1.117188 6.550781 -0.828125 C 6.601562 -0.542969 6.703125 -0.265625 6.847656 0 L 5.625 0 C 5.503906 -0.242188 5.425781 -0.527344 5.390625 -0.851562 M 5.292969 -3.46875 C 4.867188 -3.296875 4.230469 -3.148438 3.378906 -3.027344 C 2.898438 -2.957031 2.554688 -2.878906 2.355469 -2.792969 C 2.15625 -2.707031 2.003906 -2.578125 1.894531 -2.414062 C 1.785156 -2.246094 1.730469 -2.058594 1.730469 -1.855469 C 1.730469 -1.542969 1.851562 -1.28125 2.085938 -1.074219 C 2.324219 -0.867188 2.667969 -0.761719 3.125 -0.761719 C 3.578125 -0.761719 3.976562 -0.859375 4.328125 -1.058594 C 4.679688 -1.253906 4.9375 -1.527344 5.105469 -1.867188 C 5.230469 -2.132812 5.292969 -2.523438 5.292969 -3.039062 Z "/>
</g>
<g id="glyph-0-4">
<path d="M 0.867188 0 L 0.867188 -6.914062 L 1.921875 -6.914062 L 1.921875 -5.867188 C 2.191406 -6.355469 2.4375 -6.679688 2.664062 -6.835938 C 2.894531 -6.992188 3.144531 -7.070312 3.417969 -7.070312 C 3.8125 -7.070312 4.214844 -6.945312 4.621094 -6.691406 L 4.21875 -5.605469 C 3.933594 -5.773438 3.644531 -5.859375 3.359375 -5.859375 C 3.101562 -5.859375 2.875 -5.78125 2.667969 -5.628906 C 2.464844 -5.472656 2.320312 -5.261719 2.234375 -4.988281 C 2.101562 -4.570312 2.039062 -4.113281 2.039062 -3.621094 L 2.039062 0 Z "/>
</g>
<g id="glyph-0-5">
</g>
<g id="glyph-0-6">
<path d="M 7.042969 -5.613281 L 0.742188 -5.613281 L 0.742188 -6.707031 L 7.042969 -6.707031 L 7.042969 -5.613281 M 7.042969 -2.714844 L 0.742188 -2.714844 L 0.742188 -3.808594 L 7.042969 -3.808594 Z "/>
</g>
</g>
</defs>
<g fill="rgb(100%, 100%, 100%)" fill-opacity="1">
<use xlink:href="#glyph-0-0" x="30" y="32.070312"/>
<use xlink:href="#glyph-0-1" x="41" y="32.070312"/>
<use xlink:href="#glyph-0-2" x="48" y="32.070312"/>
<use xlink:href="#glyph-0-3" x="55" y="32.070312"/>
<use xlink:href="#glyph-0-4" x="62" y="32.070312"/>
<use xlink:href="#glyph-0-4" x="66" y="32.070312"/>
<use xlink:href="#glyph-0-3" x="70" y="32.070312"/>
<use xlink:href="#glyph-0-1" x="77" y="32.070312"/>
<use xlink:href="#glyph-0-5" x="84" y="32.070312"/>
<use xlink:href="#glyph-0-6" x="88" y="32.070312"/>
<use xlink:href="#glyph-0-5" x="96" y="32.070312"/>
</g>
</svg>
