<?xml version="1.0" encoding="UTF-8"?>
<svg xmlns="http://www.w3.org/2000/svg" xmlns:xlink="http://www.w3.org/1999/xlink" width="1920" height="1080" viewBox="0 0 1920 1080">
<defs>
<g>
<g id="glyph-0-0">
<path d="M 0.558594 -2.519531 L 1.730469 -2.675781 C 1.867188 -2.011719 2.09375 -1.53125 2.417969 -1.242188 C 2.742188 -0.945312 3.136719 -0.800781 3.601562 -0.800781 C 4.152344 -0.800781 4.617188 -0.992188 4.996094 -1.375 C 5.375 -1.753906 5.566406 -2.230469 5.566406 -2.792969 C 5.566406 -3.332031 5.390625 -3.773438 5.039062 -4.125 C 4.6875 -4.472656 4.242188 -4.648438 3.699219 -4.648438 C 3.476562 -4.648438 3.199219 -4.605469 2.871094 -4.519531 L 3 -5.546875 C 3.078125 -5.539062 3.140625 -5.535156 3.191406 -5.535156 C 3.6875 -5.535156 4.136719 -5.664062 4.539062 -5.925781 C 4.9375 -6.183594 5.136719 -6.585938 5.136719 -7.128906 C 5.136719 -7.558594 4.992188 -7.914062 4.699219 -8.195312 C 4.410156 -8.480469 4.035156 -8.621094 3.574219 -8.621094 C 3.117188 -8.621094 2.738281 -8.476562 2.433594 -8.191406 C 2.132812 -7.902344 1.9375 -7.472656 1.847656 -6.902344 L 0.675781 -7.109375 C 0.820312 -7.894531 1.144531 -8.503906 1.652344 -8.9375 C 2.160156 -9.367188 2.792969 -9.582031 3.546875 -9.582031 C 4.070312 -9.582031 4.546875 -9.472656 4.988281 -9.25 C 5.425781 -9.023438 5.761719 -8.71875 5.992188 -8.332031 C 6.226562 -7.945312 6.339844 -7.535156 6.339844 -7.101562 C 6.339844 -6.691406 6.230469 -6.316406 6.007812 -5.976562 C 5.789062 -5.636719 5.460938 -5.367188 5.027344 -5.167969 C 5.589844 -5.039062 6.027344 -4.769531 6.339844 -4.359375 C 6.652344 -3.949219 6.808594 -3.433594 6.808594 -2.820312 C 6.808594 -1.984375 6.507812 -1.277344 5.898438 -0.699219 C 5.289062 -0.121094 4.523438 0.167969 3.59375 0.167969 C 2.757812 0.167969 2.0625 -0.0820312 1.507812 -0.578125 C 0.953125 -1.078125 0.636719 -1.726562 0.558594 -2.519531 Z "/>
</g>
</g>
</defs>
<g fill="rgb(98.823529%, 38.431373%, 33.333333%)" fill-opacity="1">
<use xlink:href="#glyph-0-0" x="30" y="32.070312"/>
</g>
</svg>
